<svg width="12" height="12" viewBox="0 0 12 12" fill="none" xmlns="http://www.w3.org/2000/svg">
<path fill-rule="evenodd" clip-rule="evenodd" d="M9.991 1H9V0H8V1H4V0H3V1H2.009C0.899 1 0 1.9 0 2.992V10.008C0 11.108 0.902 12 2.009 12H9.991C11.101 12 12 11.1 12 10.008V2.992C12 1.892 11.098 1 9.991 1ZM11 5.00247V9.97747C11 10.5425 10.554 10.9805 10.005 10.9805H1.995C1.456 10.9805 1 10.5315 1 9.97747V4.98347C1 4.41847 1.446 3.98047 1.995 3.98047H10.005C10.544 3.98047 11 4.42947 11 4.98347V5.00247Z" fill="#2563EB"/>
</svg>
