<?xml version="1.0" encoding="utf-8"?>
<!-- Generator: Adobe Illustrator 27.7.0, SVG Export Plug-In . SVG Version: 6.00 Build 0)  -->
<svg version="1.1" id="Layer_1" xmlns="http://www.w3.org/2000/svg" xmlns:xlink="http://www.w3.org/1999/xlink" x="0px" y="0px"
	 viewBox="0 0 32 32" style="enable-background:new 0 0 32 32;" xml:space="preserve">
<style type="text/css">
	.st0{clip-path:url(#SVGID_00000006695239561972318850000009233172139598208154_);}
	.st1{fill:none;stroke:#FC8686;stroke-width:10;}
	.st2{clip-path:url(#SVGID_00000155113796921717821970000001603077159310251949_);}
	.st3{fill:#FFFFFF;}
	.st4{fill:#D32626;}
	.st5{fill:#D32626;stroke:#D32626;stroke-width:0.2;}
</style>
<g>
	<defs>
		<rect id="SVGID_1_" y="0" width="32" height="32"/>
	</defs>
	<clipPath id="SVGID_00000038413965123549940590000001393141221346418856_">
		<use xlink:href="#SVGID_1_"  style="overflow:visible;"/>
	</clipPath>
	<g style="clip-path:url(#SVGID_00000038413965123549940590000001393141221346418856_);">
		<circle class="st1" cx="16" cy="16" r="11"/>
		<g>
			<defs>
				<rect id="SVGID_00000033341743451899488540000000648171643582338965_" x="5" y="5" width="22" height="22"/>
			</defs>
			<clipPath id="SVGID_00000121279841731777112450000000957652814184334250_">
				<use xlink:href="#SVGID_00000033341743451899488540000000648171643582338965_"  style="overflow:visible;"/>
			</clipPath>
			<g style="clip-path:url(#SVGID_00000121279841731777112450000000957652814184334250_);">
				<circle class="st3" cx="16" cy="16" r="10"/>
				<path class="st4" d="M16,5C9.9,5,5,9.9,5,16c0,6.1,4.9,11,11,11c6.1,0,11-4.9,11-11C27,9.9,22.1,5,16,5z M16,25.2
					c-5.1,0-9.2-4.1-9.2-9.2c0-5.1,4.1-9.2,9.2-9.2c5.1,0,9.2,4.1,9.2,9.2C25.2,21.1,21.1,25.2,16,25.2z"/>
				<path class="st5" d="M19.2,20.3L19.2,20.3c0.2,0.2,0.4,0.2,0.6,0.2c0.2,0,0.4-0.1,0.6-0.2l0,0c0.3-0.3,0.3-0.8,0-1.1l0,0l-3-3
					l3-3v0c0.3-0.3,0.3-0.8,0-1.1l0,0c-0.3-0.3-0.8-0.3-1.1,0v0l-3,3l-3-3l0,0c-0.3-0.3-0.8-0.3-1.1,0l0,0c-0.3,0.3-0.3,0.8,0,1.1
					l0,0l3,3l-3,3l0,0c-0.3,0.3-0.3,0.8,0,1.1l0,0c0.3,0.3,0.8,0.3,1.1,0l0,0l3-3L19.2,20.3z"/>
			</g>
		</g>
	</g>
</g>
</svg>
