<svg width="169" height="33" viewBox="0 0 169 33" fill="none" xmlns="http://www.w3.org/2000/svg">
<g clip-path="url(#clip0_269_6398)">
<path fill-rule="evenodd" clip-rule="evenodd" d="M107.344 1.50111C107.344 1.94415 106.971 2.30105 106.507 2.30105C106.057 2.30105 105.67 1.94415 105.67 1.50111C105.67 1.05807 106.057 0.701172 106.507 0.701172C106.971 0.701172 107.344 1.05807 107.344 1.50111ZM51.2479 7.90091C50.3978 8.79927 49.1999 9.39006 47.7057 9.39006C45.2196 9.39006 43.1973 7.704 43.1973 5.13189C43.1973 2.55977 45.2196 0.886053 47.7057 0.886053C49.3802 0.886053 50.4751 1.64907 51.1707 2.59669L49.9341 3.26125C49.4833 2.64592 48.6717 2.16596 47.7057 2.16596C46.0053 2.16596 44.743 3.40894 44.743 5.13189C44.743 6.85483 46.0053 8.11013 47.7057 8.11013C48.5816 8.11013 49.3544 7.71631 49.7408 7.37172V6.09181H47.1775V4.82422H51.2479V7.90091ZM58.634 6.25128C58.634 7.96192 57.4232 9.3772 55.4266 9.3772C53.4558 9.3772 52.232 7.96192 52.232 6.25128C52.232 4.55295 53.4558 3.13767 55.4266 3.13767C57.4232 3.13767 58.634 4.55295 58.634 6.25128ZM55.4292 8.23303C54.2829 8.23303 53.6388 7.31002 53.6388 6.25164C53.6388 5.20557 54.2829 4.28256 55.4292 4.28256C56.5886 4.28256 57.2327 5.20557 57.2327 6.25164C57.2327 7.31002 56.5886 8.23303 55.4292 8.23303ZM65.8542 6.25128C65.8542 7.96192 64.6435 9.3772 62.6469 9.3772C60.676 9.3772 59.4523 7.96192 59.4523 6.25128C59.4523 4.55295 60.676 3.13767 62.6469 3.13767C64.6435 3.13767 65.8542 4.55295 65.8542 6.25128ZM62.6461 8.23303C61.4996 8.23303 60.8555 7.31002 60.8555 6.25164C60.8555 5.20557 61.4996 4.28256 62.6461 4.28256C63.8054 4.28256 64.4494 5.20557 64.4494 6.25164C64.4494 7.31002 63.8054 8.23303 62.6461 8.23303ZM72.7782 8.92189C72.7782 11.0632 71.1166 11.6416 69.5837 11.6416C68.5274 11.6416 67.7417 11.4202 66.9818 10.7556L67.6129 9.82027C68.1153 10.3741 68.7593 10.5833 69.5837 10.5833C70.4725 10.5833 71.4257 10.1894 71.4257 8.97104V8.25729C70.9491 8.84799 70.2406 9.24182 69.4292 9.24182C67.8447 9.24182 66.6726 8.14652 66.6726 6.18975C66.6726 4.26989 67.8319 3.13767 69.4292 3.13767C70.2149 3.13767 70.9233 3.48226 71.4257 4.1099V3.28535H72.7782V8.92189ZM69.8277 8.09766C68.7586 8.09766 68.0758 7.33464 68.0758 6.19011C68.0758 5.04558 68.7586 4.28256 69.8277 4.28256C70.4588 4.28256 71.1286 4.63946 71.425 5.0825V7.29772C71.1286 7.74076 70.4588 8.09766 69.8277 8.09766ZM75.7223 1.02089V9.22949H74.3698V1.02089H75.7223ZM80.1864 9.3772C81.1782 9.3772 82.0927 9.08185 82.7111 8.51573L82.0927 7.66656C81.6548 8.08499 80.9335 8.31882 80.3281 8.31882C79.1559 8.31882 78.4474 7.58042 78.3444 6.68202H83.149V6.37435C83.149 4.50372 81.9511 3.13767 80.0833 3.13767C78.2413 3.13767 76.9274 4.52833 76.9274 6.25128C76.9274 8.13422 78.3186 9.3772 80.1864 9.3772ZM78.3307 5.77132H81.8344C81.8086 5.06984 81.3062 4.19606 80.0825 4.19606C78.9232 4.19606 78.3951 5.04523 78.3307 5.77132ZM89.0217 9.22949V6.16512H90.5152L92.422 9.22949H94.1607L92.061 6.00513C93.0918 5.84515 94.0961 5.05751 94.0961 3.59301C94.0961 2.07927 92.9883 1.02089 91.2886 1.02089H87.5141V9.22949H89.0217ZM89.0208 4.89779H91.0824C91.9318 4.89779 92.5503 4.38091 92.5503 3.59327C92.5503 2.80564 91.9318 2.28875 91.0824 2.28875H89.0208V4.89779ZM96.9363 9.3772C97.761 9.3772 98.4821 9.09419 98.9458 8.58956V9.22949H100.299V5.29135C100.299 3.69148 99.0873 3.13767 97.7097 3.13767C96.7178 3.13767 95.8162 3.44534 95.0942 4.0976L95.648 4.99599C96.1896 4.49142 96.7948 4.24528 97.4902 4.24528C98.3529 4.24528 98.9458 4.66371 98.9458 5.35289V6.23897C98.4954 5.7344 97.7734 5.47595 96.9363 5.47595C95.9188 5.47595 94.7721 6.04207 94.7721 7.40812C94.7721 8.72493 95.9188 9.3772 96.9363 9.3772ZM96.1373 7.43271C96.1373 8.07266 96.7045 8.49109 97.4646 8.49109C98.0565 8.49109 98.637 8.28187 98.9458 7.87576V6.97736C98.637 6.57124 98.0565 6.36202 97.4646 6.36202C96.7045 6.36202 96.1373 6.78045 96.1373 7.43271ZM103.757 9.37755C104.387 9.37755 104.786 9.2175 105.032 8.99605L104.709 8.02378C104.607 8.13455 104.362 8.233 104.104 8.233C103.718 8.233 103.511 7.93763 103.511 7.53152V4.4179H104.774V3.28567H103.511V1.66119H102.159V3.28567H101.129V4.4179H102.159V7.85149C102.159 8.83601 102.713 9.37755 103.757 9.37755ZM107.192 9.2294V3.28523H105.839V9.2294H107.192ZM110.133 5.08214V9.22949H108.78V3.28535H110.133V4.0976C110.546 3.62994 111.344 3.13767 112.323 3.13767C113.663 3.13767 114.333 3.82685 114.333 5.04522V9.22949H112.98V5.51288C112.98 4.58987 112.491 4.2822 111.73 4.2822C111.035 4.2822 110.442 4.67602 110.133 5.08214ZM118.449 11.6416C119.982 11.6416 121.644 11.0632 121.644 8.92189V3.28535H120.291V4.1099C119.788 3.48226 119.081 3.13767 118.295 3.13767C116.697 3.13767 115.538 4.26989 115.538 6.18975C115.538 8.14652 116.71 9.24182 118.295 9.24182C119.106 9.24182 119.814 8.84799 120.291 8.25729V8.97104C120.291 10.1894 119.338 10.5833 118.449 10.5833C117.625 10.5833 116.981 10.3741 116.478 9.82027L115.848 10.7556C116.607 11.4202 117.392 11.6416 118.449 11.6416ZM116.941 6.19011C116.941 7.33464 117.624 8.09766 118.693 8.09766C119.324 8.09766 119.994 7.74076 120.29 7.29772V5.0825C119.994 4.63946 119.324 4.28256 118.693 4.28256C117.624 4.28256 116.941 5.04558 116.941 6.19011Z" fill="#00376F"/>
<path fill-rule="evenodd" clip-rule="evenodd" d="M48.0657 30.2109C50.8247 30.2109 52.769 28.6718 52.769 26.2127C52.769 23.8067 50.8988 22.4092 48.8249 22.4092C47.6399 22.4092 46.6215 22.8691 46.0289 23.4352V20.0209H51.9542V18.1987H43.8625V24.7974L45.3993 25.222C46.1771 24.5144 47.0473 24.196 48.1028 24.196C49.6212 24.196 50.584 25.0274 50.584 26.3012C50.584 27.4511 49.6027 28.371 48.0472 28.371C46.6585 28.371 45.5475 27.8756 44.7142 26.9734L43.4736 28.3887C44.4736 29.5209 45.9363 30.2109 48.0657 30.2109ZM55.5742 30.1925C56.2779 30.1925 56.8704 29.6264 56.8704 28.9541C56.8704 28.2818 56.2779 27.7158 55.5742 27.7158C54.8706 27.7158 54.2781 28.2818 54.2781 28.9541C54.2781 29.6264 54.8706 30.1925 55.5742 30.1925ZM63.3247 30.2106C66.7872 30.2106 68.2686 27.0792 68.2686 24.1071C68.2686 21.135 66.7872 18.0215 63.3247 18.0215C59.862 18.0215 58.3808 21.135 58.3808 24.1071C58.3808 27.0792 59.862 30.2106 63.3247 30.2106ZM63.3229 28.3703C61.3046 28.3703 60.5825 26.3536 60.5825 24.1068C60.5825 21.86 61.3046 19.8609 63.3229 19.8609C65.3412 19.8609 66.0634 21.86 66.0634 24.1068C66.0634 26.3536 65.3412 28.3703 63.3229 28.3703Z" fill="#00376F"/>
<path fill-rule="evenodd" clip-rule="evenodd" d="M80.2733 30.2144L81.0866 25.6836L77.6411 22.4748L82.4027 21.8137L84.5322 17.6914L86.6616 21.8137L91.4235 22.4748L87.9776 25.6836L88.7912 30.2144L84.5322 28.0752L80.2733 30.2144ZM99.5975 30.2144L100.411 25.6836L96.9652 22.4748L101.727 21.8137L103.856 17.6914L105.986 21.8137L110.747 22.4748L107.302 25.6836L108.116 30.2144L103.856 28.0752L99.5975 30.2144ZM118.918 30.2144L123.177 28.0752L127.436 30.2144L126.622 25.6836L130.068 22.4748L125.307 21.8137L123.177 17.6914L121.048 21.8137L116.286 22.4748L119.731 25.6836L118.918 30.2144ZM138.239 30.2144L139.052 25.6836L135.607 22.4748L140.369 21.8137L142.498 17.6914L144.628 21.8137L149.389 22.4748L145.943 25.6836L146.756 30.2144L142.498 28.0752L138.239 30.2144ZM158.373 25.6836L157.56 30.2144L161.819 28.0752L166.077 30.2144L165.264 25.6836L168.71 22.4748L163.948 21.8137L161.819 17.6914L159.689 21.8137L154.928 22.4748L158.373 25.6836Z" fill="#00376F"/>
<path d="M33.1328 16.5089C33.1328 15.181 33.02 14.2119 32.7759 13.207H16.9048V19.2006H26.2208C26.033 20.69 25.0188 22.9332 22.7648 24.4405L22.7333 24.6412L27.7514 28.3553L28.099 28.3885C31.2921 25.5711 33.1328 21.4258 33.1328 16.5089Z" fill="#00376F"/>
<path d="M16.9053 32.3C21.4694 32.3 25.301 30.8643 28.0997 28.388L22.7655 24.44C21.338 25.3911 19.4222 26.0551 16.9053 26.0551C12.4351 26.0551 8.64112 23.2378 7.28865 19.3438L7.09041 19.3598L1.87244 23.218L1.8042 23.3993C4.58398 28.675 10.2939 32.3 16.9053 32.3Z" fill="#00376F"/>
<path d="M7.28752 19.345C6.93066 18.3402 6.72413 17.2633 6.72413 16.1508C6.72413 15.0382 6.93066 13.9615 7.26874 12.9566L7.25929 12.7426L1.97594 8.82246L1.80307 8.90097C0.657393 11.0903 0 13.5488 0 16.1508C0 18.7529 0.657393 21.2113 1.80307 23.4006L7.28752 19.345Z" fill="#00376F"/>
<path d="M16.9053 6.24482C20.0795 6.24482 22.2207 7.55479 23.4416 8.64951L28.2123 4.19913C25.2823 1.59711 21.4694 0 16.9053 0C10.2939 0 4.58397 3.62486 1.8042 8.90062L7.26987 12.9562C8.64112 9.06223 12.4351 6.24482 16.9053 6.24482Z" fill="#00376F"/>
</g>
<defs>
<clipPath id="clip0_269_6398">
<rect width="169" height="33" fill="white"/>
</clipPath>
</defs>
</svg>
