<svg width="11" height="12" viewBox="0 0 11 12" fill="none" xmlns="http://www.w3.org/2000/svg">
<path fill-rule="evenodd" clip-rule="evenodd" d="M9.008 4H8.8C8.8 1.791 7.766 0 5.5 0C3.234 0 2.2 1.791 2.2 4H1.992C0.892 4 0 4.887 0 5.998V10.002C0 11.105 0.9 12 1.992 12H9.008C10.108 12 11 11.113 11 10.002V5.998C11 4.895 10.1 4 9.008 4ZM5.5 1C7.189 1 7.8 2.343 7.8 4H3.2C3.2 2.343 3.811 1 5.5 1ZM10 5.991V9.931C10 10.471 9.553 10.922 9.002 10.922H1.998C1.446 10.922 1 10.478 1 9.931V5.913C1 5.373 1.447 4.922 1.998 4.922H9.002C9.554 4.922 10 5.365 10 5.913V5.991Z" fill="#2563EB"/>
</svg>
